<?xml version="1.0" encoding="UTF-8"?>
<!DOCTYPE svg PUBLIC "-//W3C//DTD SVG 1.1//EN" "http://www.w3.org/Graphics/SVG/1.1/DTD/svg11.dtd">
<svg version="1.1" xmlns="http://www.w3.org/2000/svg" xmlns:xlink="http://www.w3.org/1999/xlink" x="0" y="0" width="559" height="495" viewBox="0, 0, 559, 495">
  <g id="Layer_1">
    <path d="M549.955,460.549 L546.358,455.777 L546.425,455.725 L550.001,460.514 L549.955,460.549 z M539.87,447.195 L536.258,442.434 L536.381,442.342 L539.974,447.117 L539.87,447.195 z M529.743,433.875 L526.117,429.127 L526.296,428.99 L529.903,433.754 L529.743,433.875 z M519.572,420.588 L515.928,415.853 L516.161,415.676 L519.786,420.424 L519.572,420.588 z M509.35,407.346 L505.682,402.623 L505.971,402.398 L509.618,407.137 L509.35,407.346 z M499.063,394.148 L495.373,389.457 L495.718,389.187 L499.386,393.895 L499.063,394.148 z M488.704,381.033 L484.975,376.361 L485.371,376.047 L489.082,380.732 L488.704,381.033 z M478.217,367.992 L474.435,363.367 L474.882,363 L478.646,367.643 L478.217,367.992 z M467.549,355.102 L463.671,350.564 L464.163,350.141 L468.026,354.699 L467.549,355.102 z M456.516,342.555 L452.354,338.299 L452.853,337.781 L457.024,342.082 L456.516,342.555 z M444.963,330.449 L441.529,325.535 L442.187,325.098 L445.58,329.998 L444.963,330.449 z M435.713,316.469 L432.592,311.361 L433.33,310.918 L436.426,316.029 L435.713,316.469 z M427.099,302.105 L424.097,296.937 L424.902,296.473 L427.883,301.65 L427.099,302.105 z M418.755,287.596 L415.817,282.39 L416.693,281.898 L419.606,287.115 L418.755,287.596 z M410.573,272.994 L407.68,267.762 L408.621,267.246 L411.491,272.486 L410.573,272.994 z M402.503,258.331 L399.643,253.085 L400.647,252.541 L403.485,257.799 L402.503,258.331 z M394.516,243.625 L391.681,238.365 L392.75,237.792 L395.563,243.062 L394.516,243.625 z M337.102,164.315 C336.354,163.908 335.613,163.504 334.878,163.106 C340.649,165.383 346.251,167.454 351.71,169.362 C352.478,170.806 353.253,172.249 354.022,173.693 C348.171,170.406 342.481,167.249 337.103,164.315 L337.103,164.313 L337.102,164.315 z M252.338,173.092 L250.519,171.613 L254.294,166.989 L256.094,168.452 L252.338,173.092 z M254.123,220.893 L252.686,221.24 L251.287,215.454 L252.757,215.107 L254.123,220.893 z M256.65,231.294 L258.089,237.065 L256.739,237.408 L255.268,231.639 L256.65,231.294 z M260.748,247.432 L262.265,253.184 L261.007,253.521 L259.457,247.773 L260.748,247.432 z M248.832,205.023 L247.504,199.219 L249.063,198.872 L250.36,204.673 L248.832,205.023 z M245.177,188.76 L244.187,184.185 L244.013,183.378 L243.688,183.778 L241.825,182.263 L243.724,179.936 L245.578,181.443 L244.458,182.828 L245.569,182.593 L246.261,185.869 L246.794,188.411 L245.177,188.76 z M224.129,191.602 L222.937,191.45 L223.321,188.471 L225.689,188.77 L225.322,191.751 L224.129,191.602 z M215.373,182.645 L213.818,183.691 L212.148,181.194 L214.128,179.861 L215.813,182.349 L215.373,182.645 z M188.826,251.459 L187.479,251.535 L187.119,245.651 L188.5,245.571 L188.826,251.459 z M189.74,267.943 L188.492,268.016 L188.13,262.131 L189.414,262.057 L189.74,267.943 z M190.655,284.428 L189.503,284.495 L189.143,278.608 L190.328,278.541 L190.655,284.428 z M191.569,300.912 L190.516,300.975 L190.153,295.088 L191.242,295.025 L191.569,300.912 z M192.482,317.398 L191.527,317.451 L191.165,311.568 L192.157,311.51 L192.482,317.398 z M193.397,333.883 L192.538,333.932 L192.177,328.047 L193.072,327.996 L193.397,333.883 z M191.708,350.309 L190.955,350.18 L191.935,344.365 L192.722,344.502 L191.708,350.309 z M188.87,366.574 L188.214,366.461 L189.193,360.645 L189.883,360.766 L188.87,366.574 z M186.033,382.838 L185.473,382.742 L186.451,376.928 L187.046,377.029 L186.033,382.838 z M183.194,399.102 L182.73,399.021 L183.71,393.207 L184.208,393.293 L183.194,399.102 z M180.357,415.367 L179.989,415.305 L180.968,409.488 L181.37,409.559 L180.357,415.367 z M177.519,431.631 L177.248,431.584 L178.228,425.77 L178.533,425.822 L177.519,431.631 z M174.681,447.895 L174.505,447.865 L175.485,442.051 L175.695,442.086 L174.681,447.895 z M171.844,464.16 L171.765,464.146 L172.744,458.33 L172.856,458.352 L171.844,464.16 z M186.107,229.172 L187.585,229.084 L187.912,234.974 L186.469,235.058 L186.107,229.172 z M185.095,212.691 L186.671,212.6 L186.998,218.487 L185.457,218.578 L185.095,212.691 z M184.084,196.212 L185.756,196.116 L186.083,202.002 L184.445,202.099 L184.084,196.212 z M183.071,179.734 L184.842,179.631 L185.169,185.518 L183.434,185.619 L183.071,179.734 z M182.061,163.256 L183.927,163.146 L184.254,169.034 L182.421,169.141 L182.061,163.256 z M181.049,146.776 L183.014,146.662 L183.34,152.548 L181.411,152.661 L181.049,146.776 z M178.295,180.776 C178.737,180.983 179.191,181.205 179.641,181.421 L180.362,191.26 C179.731,187.29 178.892,183.645 178.295,180.776 M139.104,206.577 C139.177,207.629 139.512,208.894 140.043,210.295 C134.945,211.051 129.682,211.547 124.441,211.891 L123.421,176.255 C127.086,179.943 130.795,183.59 134.587,187.152 C137.389,189.779 140.21,192.37 143.077,194.923 C140.61,199.289 138.894,203.521 139.104,206.577 M146.021,141.927 C146.083,144.833 146.417,147.697 146.968,150.456 L132.912,143.276 C137.967,148.598 143.223,152.897 148.403,156.399 L147.807,161.644 L131.081,153.101 C136.352,158.649 141.84,163.097 147.235,166.675 L144.554,190.239 C142.156,188.199 139.776,186.131 137.424,184.047 C132.61,179.775 127.896,175.387 123.268,170.911 L121.801,119.695 L146.021,141.927 z M166.545,59.998 L183.451,97.286 C175.848,100.783 169.671,104.609 165.246,107.641 C163.013,108.938 161.007,110.344 159.213,111.844 L166.545,59.998 z M222.322,96.881 C222.157,97.391 221.995,97.905 221.827,98.406 C221.729,98.694 221.629,98.977 221.529,99.262 C220.093,99.145 218.68,99.046 217.293,98.965 L222.322,96.881 z M235.392,84.741 C237.245,77.396 239.003,70.053 240.729,62.705 C243.045,52.821 245.285,42.93 247.496,33.033 L272.211,116.261 C260.991,114.57 251.518,113.19 244.6,112.199 L252.971,103.826 C247.597,102.746 242.504,101.866 237.622,101.137 L251.318,95.815 C245.622,96.138 240.204,96.955 235.104,98.091 L234.227,91.948 L238.55,90.156 C237.021,90.244 235.518,90.382 234.026,90.543 L233.98,90.226 C234.46,88.396 234.928,86.569 235.392,84.741 M284.247,123.666 L283.851,124.143 C275.425,122.77 266.995,121.426 258.554,120.154 C267.126,121.265 275.688,122.451 284.247,123.666 M282.229,132.774 L286.004,128.15 L287.64,129.48 L283.885,134.119 L282.229,132.774 z M264.128,165.807 C265.943,166.603 267.844,167.446 269.426,168.157 L269.426,178.553 L259.107,172.116 L264.128,165.807 z M270.232,135.86 C269.782,138.019 269.461,139.96 269.235,141.738 L260.018,152.837 C262.142,147.08 267.571,139.502 270.232,135.86 M246.404,168.972 C246.154,167.643 245.903,166.316 245.658,164.987 C246.469,165.686 247.3,166.393 248.157,167.116 L246.461,169.157 L246.404,168.972 M240.343,116.456 L240.954,115.844 C244.09,117.733 247.19,119.565 250.271,121.365 C246.468,119.454 243.108,117.784 240.343,116.456 M240.255,155.765 L238.456,156.107 L237.341,150.26 L239.174,149.919 L240.255,155.765 z M243.426,172.107 L241.716,172.454 L240.529,166.622 L242.271,166.275 L243.426,172.107 z M277.125,142.471 L273.369,147.111 L271.658,145.719 L275.433,141.096 L277.125,142.471 z M262.854,160.101 L261.089,158.666 L264.863,154.043 L266.609,155.462 L262.854,160.101 z M270.315,158.749 C270.438,159.264 270.559,159.779 270.675,160.296 C271.138,162.342 270.104,162.811 269.764,162.963 C268.917,163.35 267.682,163.324 266.35,163.013 L270.187,158.193 C270.229,158.379 270.273,158.563 270.315,158.749 M276.405,127.862 C277.369,128.458 278.354,129.011 279.331,129.586 L279.281,129.643 C278.321,129.051 277.353,128.477 276.405,127.862 M236.295,133.525 L237.296,139.385 L235.404,139.718 L234.371,133.853 L236.295,133.525 z M227.125,158.949 L227.951,152.53 L230.13,152.805 L229.337,159.227 L227.125,158.949 z M225.636,170.499 L227.909,170.787 L227.117,177.209 L224.809,176.918 L225.636,170.499 z M221.154,169.446 L206.77,160.482 L222.681,153.215 L222.86,157.217 L221.154,169.446 z M197.298,167.145 L205.184,179.245 C204.844,179.354 204.499,179.461 204.15,179.567 L194.239,170.656 C194.903,169.726 196.254,168.18 197.298,167.145 M192.104,147.343 L190.317,148.546 L187.368,144.134 L189.128,142.95 L192.104,147.343 z M230.266,134.56 L232.351,134.822 L231.558,141.246 L229.439,140.977 L230.266,134.56 z M197.461,155.253 L200.437,159.648 L198.578,160.899 L195.628,156.487 L197.461,155.253 z M200.194,141.081 C199.272,142.43 197.877,144.297 196.369,145.934 L193,141.081 L200.194,141.081 z M191.786,118.499 L217.472,121.912 L203.875,129.645 L185.539,127.388 L191.786,118.499 z M233.065,112.839 L234.143,120.007 L234.59,122.968 L233.799,123.092 L233.777,123.262 L233.184,123.187 L232.606,123.278 L232.58,123.11 L231.754,123.007 L233.065,112.839 z M176.295,117.034 C176.389,116.95 176.479,116.864 176.574,116.782 C177.356,116.118 178.155,115.475 178.966,114.846 C180.455,113.691 181.994,112.605 183.628,111.671 C188.605,108.676 194.034,106.516 199.598,105.028 C196.903,106.049 194.201,107.038 191.63,108.321 C189.021,109.508 186.519,110.913 184.116,112.457 C183.78,112.674 183.452,112.901 183.121,113.124 C180.948,114.589 178.865,116.19 176.926,117.943 L176.295,117.034 z M166.57,207.659 L175.343,201.021 L177.738,204.164 L174.994,208.784 L166.57,207.659 z M167.796,188.108 C168.477,188.789 169.956,190.221 171.344,191.558 L157.603,202.523 L153.044,199.445 C158.474,195.193 166.059,189.311 167.796,188.108 M171.475,123.821 C167.949,128.271 165.354,133.466 164.036,138.995 C163.509,141.275 163.222,143.617 163.236,145.962 C163.24,146.461 163.239,146.958 163.271,147.455 C163.386,149.101 163.654,150.775 164.198,152.351 C164.584,153.468 165.105,154.537 165.826,155.503 C164.949,154.552 164.313,153.397 163.841,152.186 C163.786,152.043 163.722,151.902 163.67,151.757 C163.188,150.386 162.857,148.957 162.688,147.508 C162.62,146.88 162.587,146.251 162.567,145.621 C162.493,143.337 162.709,141.046 163.136,138.8 C164.297,133.065 166.989,127.711 170.527,123.083 C171.892,121.336 173.399,119.706 175.009,118.192 L175.117,119.672 C173.818,120.978 172.592,122.353 171.475,123.821 M173.466,145.597 L176.753,141.996 L177.064,146.247 C175.947,146.011 174.755,145.789 173.466,145.597 M167.922,163.439 C167.849,161.838 168.015,158.434 169.578,158.237 C170.664,158.103 174.249,158.687 178.029,159.412 L178.4,164.492 C175.43,165.117 171.851,165.089 167.922,163.439 M168.727,177.273 L157.765,183.195 L167.672,174.902 L168.727,177.273 z M154.594,145.105 C154.463,143.905 154.443,142.697 154.48,141.49 C154.533,139.781 154.722,138.076 155.041,136.397 C156.203,130.662 158.893,125.308 162.433,120.679 C164.229,118.378 166.273,116.279 168.479,114.38 C170.695,112.498 173.008,110.709 175.532,109.269 C180.511,106.273 185.939,104.113 191.503,102.624 C188.808,103.647 186.106,104.635 183.536,105.917 C180.926,107.105 178.422,108.51 176.021,110.054 C171.234,113.152 166.827,116.892 163.38,121.419 C159.855,125.869 157.259,131.063 155.939,136.592 C155.542,138.318 155.291,140.081 155.188,141.852 C155.126,142.917 155.105,143.985 155.176,145.053 C155.24,145.976 155.356,146.907 155.537,147.825 C155.906,149.709 156.563,151.536 157.731,153.101 C156.75,152.039 156.058,150.722 155.575,149.355 C155.366,148.759 155.198,148.147 155.047,147.532 C154.85,146.732 154.688,145.924 154.594,145.105 M151.116,169.107 C154.054,170.854 156.938,172.355 159.723,173.643 C158.858,174.301 157.993,175.056 157.13,175.932 C155.644,177.443 152.181,181.483 148.684,186.311 L151.116,169.107 z M182.425,136.063 L182.233,136.075 L182.058,136.193 L181.988,136.09 L180.398,136.182 L179.985,129.449 L183.771,135.04 L182.419,135.949 L182.425,136.063 z M206.837,173.252 L203.889,168.841 L205.795,167.558 L208.771,171.952 L206.837,173.252 z M287.864,183.789 C289.698,184.47 295.407,186.98 299.238,188.702 L299.238,199.098 L286.736,191.3 L287.864,183.789 z M300.255,179.469 C300.718,181.516 299.684,181.985 299.345,182.138 C296.925,183.236 291.39,181.051 289.309,178.184 C286.229,173.933 295.945,160.331 299.813,155.035 C297.321,166.982 298.628,172.537 299.895,177.922 C300.017,178.438 300.138,178.953 300.255,179.469 M318.358,200.251 C320.193,200.932 325.901,203.442 329.733,205.164 L329.733,215.559 L317.231,207.76 L318.358,200.251 z M333.989,197.498 C331.569,198.599 326.036,196.414 323.953,193.545 C320.873,189.295 330.591,175.69 334.457,170.396 C331.966,182.344 333.272,187.897 334.54,193.283 C334.661,193.799 334.782,194.313 334.899,194.832 C335.362,196.878 334.328,197.346 333.989,197.498 M288.793,134.804 C292.286,136.61 295.817,138.346 299.368,140.031 C303.321,141.804 307.212,143.711 311.235,145.323 L317.228,147.833 C319.218,148.686 321.269,149.39 323.286,150.175 C327.336,151.71 331.372,153.276 335.49,154.621 L340.176,156.221 L344.679,156.084 C344.854,156.414 345.029,156.743 345.204,157.074 L343.114,157.218 C343.647,157.4 344.179,157.586 344.713,157.756 L345.725,158.059 C345.963,158.507 346.2,158.957 346.438,159.406 L344.384,158.783 C343.351,158.45 342.329,158.08 341.302,157.728 L340.372,157.408 L340.156,157.423 L340.151,157.331 L335.147,155.599 C333.104,154.865 331.024,154.234 329.013,153.415 L322.951,151.033 C320.938,150.219 318.894,149.487 316.908,148.608 L310.935,146.016 C306.927,144.349 303.045,142.397 299.114,140.558 C295.578,138.78 292.063,136.955 288.59,135.058 L288.793,134.804 z M296.573,115.205 L298.154,116.489 L294.398,121.129 L292.798,119.827 L296.573,115.205 z M315.74,100.928 C319.942,109.008 324.155,117.081 328.38,125.145 C318.613,123.52 309.109,121.985 300.119,120.567 L315.74,100.928 z M307.143,102.258 L308.67,103.499 L304.914,108.138 L303.368,106.881 L307.143,102.258 z M315.837,91.607 L316.771,90.464 L318.776,94.46 L317.084,95.315 L316.395,93.955 L315.43,95.147 L313.938,93.935 L315.837,91.607 z M323.614,104.057 L326.308,109.384 L324.68,110.212 L321.964,104.895 L323.614,104.057 z M331.168,118.975 L333.873,124.302 L332.312,125.1 L329.582,119.785 L331.168,118.975 z M338.753,133.885 L341.468,139.206 L339.971,139.976 L337.231,134.665 L338.753,133.885 z M295.739,126.072 L296.24,125.442 C302.378,126.371 308.515,127.314 314.646,128.286 C320.265,129.181 325.878,130.113 331.488,131.062 C331.693,131.451 331.897,131.841 332.103,132.232 C326.236,131.207 320.368,130.192 314.497,129.193 C308.248,128.128 301.994,127.093 295.739,126.072 M337.314,142.156 C337.495,142.5 337.675,142.845 337.857,143.187 L296.535,134.471 C310.164,136.847 323.747,139.46 337.314,142.156 M370.483,138.063 C389.024,141.706 407.536,145.564 425.85,150.265 C434.998,152.637 444.11,155.178 453.066,158.225 C457.532,159.779 461.972,161.427 466.271,163.401 C468.426,164.379 470.532,165.462 472.57,166.662 C474.584,167.887 476.555,169.261 478.102,171.055 C476.518,169.294 474.528,167.969 472.495,166.789 C470.439,165.635 468.318,164.601 466.152,163.669 C461.826,161.791 457.364,160.239 452.88,158.783 C443.909,155.86 434.785,153.42 425.623,151.16 C407.292,146.653 388.802,142.79 370.255,139.242 C361.082,137.448 351.89,135.745 342.689,134.097 C342.487,133.691 342.284,133.284 342.081,132.877 C351.56,134.537 361.027,136.267 370.483,138.063 M462.889,177.469 L456.381,177.484 C455.296,177.476 454.21,177.516 453.126,177.468 L449.878,177.305 C441.218,176.777 432.527,176.555 423.912,175.444 C419.598,174.961 415.269,174.591 410.972,173.981 L398.109,171.927 C393.807,171.325 389.566,170.382 385.314,169.502 L378.938,168.179 L375.748,167.518 L372.591,166.723 L359.977,163.468 C358.976,163.182 357.979,162.877 356.98,162.58 C356.748,162.12 356.519,161.658 356.286,161.197 C357.617,161.59 358.946,161.988 360.282,162.364 L372.872,165.556 L376.018,166.36 L379.194,167.033 L385.549,168.377 C389.784,169.272 394.009,170.231 398.297,170.85 L411.116,172.953 C413.25,173.326 415.414,173.478 417.561,173.757 L424.012,174.526 C432.596,175.746 441.263,176.069 449.903,176.718 L453.146,176.955 C454.228,177.027 455.311,177.011 456.394,177.045 L462.894,177.174 L475.897,177.434 L462.889,177.469 z M364.429,183.834 L363.123,184.515 L360.352,179.218 L361.679,178.528 L364.429,183.834 z M353.661,219.93 C355.495,220.611 361.203,223.12 365.035,224.843 L365.035,235.239 L352.533,227.441 L353.661,219.93 z M354.012,163.669 L356.748,168.981 L355.379,169.692 L352.618,164.39 L354.012,163.669 z M370.743,155.302 L353.909,156.469 C353.8,156.251 353.692,156.034 353.582,155.818 L370.743,155.302 z M347.788,144.294 C351.653,145.085 355.522,145.864 359.383,146.676 L359.383,146.628 L388.37,147.229 L364.306,147.728 C369.966,148.932 375.627,150.142 381.283,151.377 C387.436,152.767 393.588,154.165 399.733,155.588 L399.737,155.584 L399.745,155.592 C407.629,157.419 415.502,159.293 423.347,161.282 C425.511,161.832 427.672,162.393 429.834,162.952 L450.661,160.759 L432.712,163.692 C443.533,166.514 454.315,169.49 464.978,172.865 L454.555,170.028 L444.098,167.337 C440.62,166.41 437.114,165.584 433.624,164.713 C432.66,164.474 431.693,164.252 430.729,164.015 L429.876,164.155 L429.828,163.798 C427.596,163.252 425.366,162.697 423.127,162.18 C416.001,160.474 408.865,158.808 401.722,157.177 L419.015,171.055 L399.068,156.584 C393.057,155.219 387.044,153.868 381.021,152.549 C373.871,150.935 366.712,149.37 359.545,147.826 L359.383,147.83 L359.383,147.791 C355.709,146.999 352.034,146.212 348.358,145.428 C348.168,145.05 347.979,144.673 347.788,144.294 M345.251,139.233 L348.537,141.482 L345.47,139.676 C345.396,139.528 345.323,139.38 345.251,139.233 M347.659,154.84 L344.909,149.533 L346.367,148.783 L349.093,154.099 L347.659,154.84 z M365.293,194.801 C364.973,200.243 365.995,203.436 367,206.545 C367.393,207.763 367.764,208.912 368.054,210.192 C368.515,212.239 367.482,212.707 367.142,212.859 C364.721,213.958 359.188,211.776 357.107,208.906 C354.681,205.557 359.677,197.242 363.582,191.599 C364.067,192.505 364.549,193.414 365.035,194.32 C365.121,194.481 365.208,194.639 365.293,194.801 M401.989,237.461 L401.989,247.857 L400.176,246.726 C397.889,242.376 395.61,238.022 393.343,233.664 C395.878,234.741 399.371,236.284 401.989,237.461 M400.242,207.166 C398.388,216.25 399.763,219.095 401.211,222.094 C401.779,223.267 402.366,224.48 402.739,226.134 C403.202,228.182 402.169,228.648 401.828,228.803 C399.407,229.901 393.875,227.716 391.793,224.848 C388.798,220.717 396.692,211.368 400.064,207.375 L400.242,207.166 M389.487,240.059 L389.563,239.552 C389.718,239.832 389.871,240.114 390.025,240.395 L389.487,240.059 z M383.777,223.611 L384.912,223.007 L387.708,228.293 L386.596,228.885 L383.777,223.611 z M375.925,208.831 L377.124,208.198 L379.899,213.487 L378.723,214.109 L375.925,208.831 z M368.118,194.031 L369.382,193.371 L372.142,198.665 L370.899,199.315 L368.118,194.031 z M265.064,263.514 L266.663,269.243 L265.493,269.574 L263.863,263.85 L265.064,263.514 z M269.613,279.531 L271.295,285.234 L270.215,285.561 L268.5,279.859 L269.613,279.531 z M274.402,295.478 L276.177,301.152 L275.184,301.471 L273.379,295.797 L274.402,295.478 z M279.454,311.344 L281.325,316.99 L280.423,317.295 L278.521,311.654 L279.454,311.344 z M284.669,327.18 L286.316,332.904 L285.484,333.137 L283.811,327.437 L284.669,327.18 z M289.058,343.264 L290.499,349.041 L289.748,349.228 L288.276,343.467 L289.058,343.264 z M292.996,359.459 L294.349,365.307 L293.679,365.461 L292.296,359.627 L292.996,359.459 z M296.693,375.752 L297.963,381.568 L297.376,381.697 L296.077,375.891 L296.693,375.752 z M300.19,392.039 L301.399,397.867 L300.898,397.971 L299.659,392.152 L300.19,392.039 z M303.523,408.365 L304.674,414.205 L304.257,414.285 L303.076,408.455 L303.523,408.365 z M306.689,424.723 L307.776,430.574 L307.445,430.637 L306.328,424.793 L306.689,424.723 z M309.67,441.119 L310.68,446.982 L310.436,447.023 L309.394,441.168 L309.67,441.119 z M312.413,457.553 L313.317,463.436 L313.159,463.459 L312.224,457.584 L312.413,457.553 z M314.804,474.043 L315.521,479.951 L315.448,479.959 L314.701,474.057 L314.804,474.043 z M433.048,224.565 C431.193,233.648 432.568,236.495 434.018,239.493 C434.585,240.666 435.172,241.879 435.545,243.531 C436.007,245.578 434.974,246.047 434.634,246.203 C432.217,247.289 426.681,245.116 424.599,242.248 C421.604,238.116 429.5,228.765 432.871,224.774 L433.048,224.565 M556.423,469.166 L556.434,469.156 L558.219,471.566 C536.022,441.156 513.606,410.9 490.576,381.092 C484.808,373.646 478.991,366.236 473.063,358.906 C467.096,351.59 461.179,344.285 454.497,337.41 L453.218,336.131 L451.832,334.889 L451.152,334.281 L450.613,333.777 C450.252,333.439 449.89,332.992 449.527,332.607 C448.088,330.914 446.749,329.01 445.435,327.113 C442.824,323.275 440.355,319.297 437.936,315.287 C433.103,307.264 428.479,299.082 423.914,290.873 C416.823,278.033 409.877,265.109 403.021,252.135 C407.641,254.195 411.303,255.85 411.303,255.85 C411.303,255.85 407.998,247.437 415.209,251.944 C422.419,256.451 441.347,263.061 441.948,261.258 C442.549,259.455 439.244,253.446 444.952,254.348 C450.661,255.249 455.769,243.832 463.279,244.132 C470.79,244.433 450.961,240.828 450.661,237.823 C450.36,234.818 450.961,230.312 450.961,230.312 C450.961,230.312 444.878,226.645 435.131,220.841 L435.61,218.83 L434.55,220.496 C426.089,215.459 414.985,208.882 402.738,201.711 L402.805,201.43 L402.656,201.665 C391.906,195.369 380.285,188.624 368.809,182.07 L368.854,181.878 L368.752,182.039 C367.852,181.525 366.952,181.012 366.053,180.5 C364.763,177.956 363.471,175.412 362.184,172.867 C451.414,201.404 495.363,180.628 488.517,165.492 C483.26,153.87 407.09,138.497 339.127,126.951 C333.004,114.665 326.901,102.372 320.841,90.062 L317.61,83.5 L288.351,118.725 C284.862,118.186 281.479,117.666 278.22,117.17 L246.729,2.27 L243.208,16.841 C239.677,31.457 236.059,46.077 232.319,60.637 C230.447,67.917 228.542,75.185 226.556,82.408 C225.649,85.705 224.719,88.989 223.753,92.238 C216.618,93.824 210.046,96.118 204.184,98.684 C200.832,98.75 197.658,98.934 194.651,99.221 L194.236,98.38 L220.523,87.752 C209.973,88.352 200.355,90.721 191.972,93.783 L162.366,33.655 L152.669,118.903 C150.049,122.624 148.304,126.637 147.258,130.748 L113.048,101.319 L116.901,164.613 C108.661,156.319 100.723,147.717 93.295,138.683 C88.799,133.264 84.526,127.662 80.466,121.909 C76.385,116.17 72.581,110.232 69.126,104.097 C65.65,97.973 62.493,91.65 59.95,85.074 C57.383,78.512 55.322,71.733 54.079,64.768 C55.125,71.765 56.996,78.621 59.388,85.286 C61.756,91.964 64.749,98.414 68.071,104.673 C71.375,110.946 75.034,117.034 78.979,122.927 C82.901,128.834 87.046,134.599 91.418,140.184 C99.469,150.562 108.153,160.434 117.225,169.931 L119.795,212.149 C114.526,212.389 109.248,212.478 103.968,212.389 C97.815,212.288 91.662,211.958 85.528,211.398 C79.396,210.811 73.289,209.974 67.224,208.882 C55.107,206.673 43.153,203.352 31.77,198.564 C26.043,196.24 20.565,193.356 15.21,190.268 C9.869,187.141 4.846,183.504 0,179.636 C4.714,183.656 9.633,187.467 14.896,190.779 C20.169,194.055 25.594,197.137 31.286,199.663 C42.602,204.861 54.571,208.609 66.756,211.241 C72.855,212.541 79.01,213.588 85.199,214.384 C91.392,215.153 97.614,215.687 103.85,215.992 C109.241,216.258 114.642,216.339 120.046,216.265 L122.308,253.432 C116.11,269.293 109.953,285.162 103.855,301.057 L94.72,325.115 L90.258,337.187 L88.103,343.248 L87.076,346.299 L86.602,347.836 L86.391,348.613 C86.352,348.865 86.213,349.158 86.326,349.389 C86.223,349.158 86.37,348.869 86.417,348.617 L86.651,347.85 L87.175,346.332 L88.297,343.318 L90.646,337.332 L95.491,325.418 L105.393,301.674 C112.045,285.868 118.761,270.084 125.513,254.322 L125.647,254.01 L124.563,216.161 C130.159,215.975 135.714,215.642 141.386,214.962 L141.024,212.586 C141.273,213.112 141.542,213.649 141.83,214.196 L138.111,246.878 L115.168,320.545 L140.03,247.39 L140.056,247.312 L140.072,247.209 L144.165,218.261 C147.637,223.855 152.234,229.689 155.819,233.199 L155.71,233.829 C155.848,233.84 156.237,233.915 156.52,233.974 L156.677,234.011 C158.707,235.865 160.315,236.825 161.036,236.321 C161.237,236.181 161.479,236 161.749,235.794 C162.135,235.983 162.526,236.164 162.892,236.373 C165.115,237.63 166.962,239.278 168.147,241.294 C168.747,242.299 169.188,243.397 169.467,244.574 C169.729,245.742 169.895,247.064 169.798,248.142 C169.554,250.717 168.785,253.697 167.994,256.557 C166.351,262.342 164.357,268.133 162.316,273.9 C160.265,279.664 158.127,285.418 155.965,291.164 L142.894,325.648 C140.745,331.414 138.622,337.187 136.601,342.998 C134.593,348.812 132.63,354.652 131.081,360.603 C132.952,354.748 135.225,349.041 137.543,343.355 C139.875,337.676 142.306,332.035 144.763,326.406 L159.699,292.687 C162.177,287.057 164.634,281.41 167.019,275.717 C169.393,270.016 171.725,264.297 173.77,258.357 C174.764,255.346 175.759,252.409 176.309,248.881 C176.564,246.904 176.466,245.127 176.189,243.28 C175.894,241.442 175.312,239.607 174.456,237.908 C172.894,234.76 170.448,232.206 167.752,230.285 C172.002,225.825 176.992,219.344 179.664,211.685 C180.639,208.887 181.092,205.864 181.207,202.791 L191.176,338.887 L169.502,477.574 L170.001,474.613 L170.02,474.615 L169.502,477.574 L195.349,339.119 L195.337,338.852 L188.68,186.262 C199.462,192.649 210.789,201.788 217.72,214.323 C224.528,200.768 215.316,191.602 215.316,191.602 C215.316,191.602 237.348,206.476 244.559,216.642 C251.369,209.983 236.546,187.352 236.546,187.352 C236.546,187.352 239.389,190.296 242.938,193.656 C244.598,200.775 246.3,207.885 248.054,214.987 C250.067,222.74 251.965,230.516 254.109,238.234 L257.261,249.822 L262.231,267.135 L267.484,284.366 L271.172,295.797 C272.433,299.598 273.595,303.426 274.945,307.197 L278.883,318.541 C280.204,322.357 281.515,326.014 282.671,329.805 C284.992,337.379 287.072,345.074 289.067,352.787 C293.043,368.223 296.698,383.758 300.149,399.336 C303.592,414.916 306.843,430.545 309.782,446.232 C311.247,454.078 312.633,461.937 313.852,469.824 C315.036,477.711 316.196,485.621 316.578,493.6 L316.446,490.598 L316.461,490.598 L316.578,493.6 C316.407,485.609 315.454,477.662 314.478,469.738 C313.466,461.809 312.287,453.906 311.03,446.018 C308.502,430.238 305.66,414.514 302.627,398.822 C299.583,383.131 296.335,367.48 292.752,351.885 C290.954,344.088 289.073,336.309 286.918,328.555 C285.847,324.676 284.566,320.781 283.376,317.018 L279.757,305.635 C278.513,301.853 277.458,298.008 276.306,294.195 L272.938,282.736 L268.168,265.467 L266.67,259.684 L263.68,248.118 L260.852,236.513 C258.922,228.788 257.239,221 255.441,213.246 C254.629,209.543 253.831,205.833 253.045,202.12 C254.495,203.047 255.652,203.528 256.271,203.27 C257.704,202.671 254.476,192.984 250.895,182.443 L257.199,174.516 C269.043,183.958 283.496,194.616 298.52,204.861 L315.452,261.885 L315.52,262.112 L315.651,262.279 L384.364,349.389 L317.65,261.035 L303.104,207.961 C331.249,226.843 360.654,243.708 378.168,248.01 C371.858,243.804 380.958,242.931 385.165,244.433 C386.637,244.958 390.278,246.515 394.389,248.312 C402.703,263.361 411.131,278.35 419.767,293.23 C424.521,301.373 429.334,309.486 434.382,317.482 C436.912,321.48 439.49,325.449 442.259,329.336 C443.665,331.275 445.073,333.201 446.722,335.062 C447.173,335.527 447.563,335.99 448.065,336.447 L449.481,337.687 L450.749,338.773 L451.99,339.965 C458.573,346.457 464.688,353.666 470.763,360.807 C476.826,367.986 482.788,375.262 488.705,382.572 C512.335,411.857 535.386,441.633 558.219,471.566 L556.423,469.166" fill="#0B0B09"/>
  </g>
</svg>
